<?xml version="1.0" encoding="utf-8"?>
<!-- Generator: Adobe Illustrator 23.0.3, SVG Export Plug-In . SVG Version: 6.00 Build 0)  -->
<svg version="1.1" xmlns="http://www.w3.org/2000/svg" xmlns:xlink="http://www.w3.org/1999/xlink" x="0px" y="0px"
	 viewBox="0 0 1799.6 1200.87" style="enable-background:new 0 0 1799.6 1200.87;" xml:space="preserve">
<style type="text/css">
	.st0{fill:#E3E5FC;}
	.st1{fill:#FFFFFF;}
	.st2{fill:none;stroke:#FFFFFF;stroke-linecap:round;stroke-miterlimit:10;}
	.st3{fill:#FDC510;}
	.st4{fill:#5A54FF;}
	.st5{fill:#978CFF;}
	.st6{fill:#F44E4E;}
</style>
<g id="Nature">
	<ellipse id="Ground" class="st0" cx="930.15" cy="920.76" rx="454.76" ry="57.82"/>
	<g id="Plant">
		<path class="st0" d="M1019.62,755.72c7.6-9.46,20.58-15.07,31.56-22.11c10.97-7.04,20.76-17.3,18.27-28.88
			c-4.12-19.21-38.29-29.05-41.89-48.3c-4.11-22.01,33.45-31.77,42.18-52.13c4.98-11.62-0.42-25.21-9.29-36.16
			s-20.98-20.07-31.43-30.15c-12.66-12.21-23.2-26.52-25.08-41.76s6.69-31.33,23.94-37c9.72-3.19,20.92-2.87,31.43-4.31
			c10.51-1.44,21.48-5.56,24.35-13.64c1.42-4.01,0.62-8.39,0.25-12.65c-3.06-35.44,29.27-68.63,72.67-74.58
			c-2.56,8.35,11.49,16.02,22.1,14.17c10.61-1.84,17.54-9.26,23.49-16.27c5.95-7.01,12.53-14.54,22.96-16.83
			c8.37-1.84,17.6,0.1,26.28,2.12c6.72,1.56,14.51,3.97,16.67,9.26c0.9,2.2,0.6,4.52,0.22,6.74c-3.45,20.05-12.87,38.81-17.55,58.63
			c-4.68,19.82-3.98,42.11,10.94,59.71c8.97,10.58,22.64,18.93,28.66,30.62c9.55,18.54-3.27,37.9-16.4,53.6
			s-27.57,33.69-21.12,52.88c6.48,19.3,103.61,7.53,80.01,126.4c-5.72,28.8-46.84-1.89-42.25,27.32
			c1.94,12.34-26.09,1.26-28.8,13.23c-0.86,3.8,17.61,22.46,16.12,26.1c-5.17,12.64-21.07,12.81-8.74,23.01
			c6.44,5.33,15.13,9.85,17.43,16.85c4.13,12.57-15.06,20.52-31.09,21.02c-13.38,0.41-16.23-38-27.35-31.68
			c-13.06,7.43-26.93,36.59-90.99,28.45c-26.48-3.37-37.01-70.11-56.86-58.81C1034.92,826.39,980.24,804.75,1019.62,755.72z"/>
		<g>
			<g>
				
					<rect x="958.15" y="676.77" transform="matrix(0.0346 -0.9994 0.9994 0.0346 432.8199 1805.3645)" class="st1" width="385.56" height="3.75"/>
			</g>
			<g>
				<path class="st1" d="M1145.25,677.07l-2.14-3.08c5.8-4.03,56.96-39.38,66.79-40l0.23,3.74
					C1203.49,638.15,1167.69,661.49,1145.25,677.07z"/>
			</g>
			<g>
				<path class="st1" d="M1145.46,605.38c-24.91-34.02-66.32-92.01-63.74-98.24c0.33-0.79,1.01-1.33,1.86-1.46l0.57,3.7
					c0.72-0.11,1.1-0.77,1.1-1.09c-0.08,6.1,38.74,61.42,63.23,94.86L1145.46,605.38z"/>
			</g>
			<g>
				<path class="st1" d="M1154.97,537.19l-2.51-2.78c1.89-1.7,46.34-41.75,50.97-45.16l2.22,3.02
					C1201.17,495.56,1155.43,536.77,1154.97,537.19z"/>
			</g>
		</g>
	</g>
	<g id="Plant_1_">
		<path class="st3" d="M1213.48,641.33c2.26-5.91,4.97-12.11,11.73-15.4c8.57-4.14,20.93-2.43,30.69,1.63
			c9.75,4.06,18.02,10.27,27.48,15.2c2.54,1.32,5.51,2.6,8.31,2.1c2.83-0.5,4.57-2.66,5.89-4.72c14.74-23.82,9.93-52.84,15.24-78.72
			c1.34-7.07,3.8-14.67,9.92-19.72c16.08-14.05,19.35-4.05,34.73-19.97c10.74-11.12,17.24-34.68,33-40.22
			c32.59-11.45,19.14,52.48,18.31,67.59c-1.56,28.66,37.41,34.95,23.38,67.28c-6.09,14.04-18.16,24.08-27.16,35.97
			c-8.91,11.96-14.37,28.75-3.66,41.4c6.97,8.24,20.76,14.87,19.98,24.71c-0.48,5.79-6.39,9.33-11.94,12.05
			c-13.85,6.86-28.2,13.01-43,18.45c-3.74,1.38-7.72,2.84-9.52,5.77c-2.47,4-0.09,9.43,1.46,14.41
			c5.72,18.37-1.74,35.87-16.19,47.07c-14.37,11.25-34.96,17-55.92,21.24c-26.97,5.5-55.01,8.96-83.91,10.26
			c-84.11,0.27-43.84-56.1-35.95-77.76C1181.5,726.44,1197.22,683.56,1213.48,641.33z"/>
		<g>
			<path class="st1" d="M1227.87,828.28c-0.34,0-0.69-0.09-1-0.29c-0.87-0.55-1.14-1.71-0.59-2.58l141.37-224.57
				c0.55-0.88,1.72-1.14,2.58-0.59c0.87,0.55,1.14,1.71,0.59,2.58l-141.37,224.57C1229.1,827.97,1228.49,828.28,1227.87,828.28z"/>
		</g>
		<g>
			<path class="st1" d="M1308.26,700.47c-0.79,0-1.52-0.5-1.78-1.29l-10.63-32.57c-0.32-0.98,0.22-2.04,1.2-2.36
				c0.99-0.32,2.04,0.21,2.36,1.2l10.63,32.57c0.32,0.98-0.22,2.04-1.2,2.36C1308.64,700.44,1308.45,700.47,1308.26,700.47z"/>
		</g>
		<g>
			<path class="st1" d="M1328.61,668.85c-0.85,0-1.61-0.58-1.82-1.44c-0.24-1.01,0.38-2.02,1.38-2.26l33.31-8.01
				c1.02-0.25,2.02,0.38,2.26,1.38c0.24,1.01-0.38,2.02-1.38,2.26l-33.31,8.01C1328.91,668.83,1328.76,668.85,1328.61,668.85z"/>
		</g>
	</g>
	<g id="Plant_2_">
		<path class="st4" d="M1033.83,828.07c-1.88-5.23-2.82-11.23-0.37-16.22c4.75-9.68,18.99-9.78,28.56-4.84s17.31,13.31,27.5,16.83
			c10.19,3.52,24.67-1.38,24.92-12.15c0.12-5.44-3.42-10.17-6.39-14.73c-8.52-13.09-13.45-28.5-14.09-44.1
			c-0.25-5.94,1.76-13.71,7.7-14.05c3.48-0.2,6.39,2.48,8.83,4.97c10.08,10.28,20.16,20.56,30.24,30.85
			c2.18-29.22,5.91-61.64,28.11-80.76c4.14-3.56,10.63-6.44,14.68-2.77c1.79,1.63,2.49,4.12,2.95,6.5
			c3.62,18.7-2.51,38.52,2.66,56.85c0.77,2.72,1.86,5.49,4.04,7.29c10.06,8.34,23.09-12.57,35.74-9.27
			c8.23,2.15,10.26,13.53,6.94,21.36c-3.32,7.83-9.96,13.79-13.93,21.31c-3.96,7.52-4.05,18.62,3.38,22.75
			c3.47,1.93,7.67,1.81,11.64,1.63c12.33-0.55,24.66-1.1,36.99-1.65c-6.59,9.62-13.17,19.25-19.76,28.87
			c-1.73,2.53-3.55,5.49-2.76,8.46c1.65,6.24,11.48,4.82,16.17,9.26c5.24,4.96,0.74,14.52-5.99,17.14
			c-6.73,2.62-14.24,0.96-21.45,0.62c-40.46-1.93-69.17,24.83-109.91,8.95C1097.06,878.23,1047.36,865.76,1033.83,828.07z"/>
		<g>
			<path class="st1" d="M1158.3,897.6c-0.03,0-0.05,0-0.08,0c-0.78-0.04-1.36-0.71-1.32-1.48c2.2-38.76,6.56-104.11,10.98-106.23
				c0.7-0.33,1.54-0.04,1.87,0.66c0.3,0.62,0.1,1.35-0.44,1.74c-2.95,4.49-7.46,66.04-9.62,103.99
				C1159.66,897.02,1159.04,897.6,1158.3,897.6z"/>
		</g>
		<g>
			<path class="st1" d="M1160.66,860.92c-0.64,0-1.21-0.44-1.37-1.08c-0.18-0.75,0.29-1.51,1.05-1.69l50.04-11.83
				c0.75-0.18,1.51,0.29,1.69,1.04c0.18,0.75-0.29,1.51-1.05,1.69l-50.04,11.83C1160.87,860.9,1160.76,860.92,1160.66,860.92z"/>
		</g>
		<g>
			<path class="st1" d="M1158.91,887.41c-0.25,0-0.5-0.06-0.73-0.2l-63.76-38.61c-0.66-0.4-0.87-1.27-0.47-1.93
				c0.4-0.66,1.27-0.88,1.93-0.47l63.76,38.61c0.66,0.4,0.87,1.27,0.47,1.93C1159.85,887.17,1159.39,887.41,1158.91,887.41z"/>
		</g>
		<g>
			<path class="st1" d="M1162.22,840.13c-0.44,0-0.87-0.2-1.14-0.59l-23.86-33.32c-0.45-0.63-0.31-1.51,0.32-1.96
				c0.63-0.45,1.5-0.31,1.96,0.32l23.86,33.32c0.45,0.63,0.31,1.51-0.32,1.96C1162.79,840.04,1162.51,840.13,1162.22,840.13z"/>
		</g>
	</g>
	<g id="Leaves">
		<path class="st3" d="M1276.9,278.16c0.88,1.3,2.04,2.52,3.55,2.94c2.53,0.69,5.18-1.23,6.24-3.63c1.06-2.4,0.92-5.13,0.77-7.75
			c4.02,3.78,9.53,6.83,14.89,5.5c5.36-1.33,8.75-8.98,4.65-12.69c3.89,1.01,8.07,2.02,11.84,0.61c3.76-1.4,6.44-6.32,4.09-9.58
			c-1.18-1.64-3.21-2.39-5.12-3.05c-8.63-2.98-17.26-5.96-25.89-8.94c-2.23-0.77-4.54-1.55-6.9-1.36
			C1267.38,241.67,1269.53,267.35,1276.9,278.16z"/>
		<path class="st0" d="M461.39,438.29c0.88,1.3,2.04,2.52,3.55,2.94c2.53,0.69,5.18-1.23,6.24-3.63c1.06-2.4,0.92-5.13,0.77-7.75
			c4.02,3.78,9.53,6.83,14.89,5.5c5.36-1.33,8.75-8.98,4.65-12.69c3.89,1.01,8.07,2.02,11.84,0.61c3.76-1.4,6.44-6.32,4.09-9.58
			c-1.18-1.64-3.21-2.39-5.12-3.05c-8.63-2.98-17.26-5.96-25.89-8.94c-2.23-0.77-4.54-1.55-6.9-1.36
			C451.87,401.8,454.02,427.47,461.39,438.29z"/>
		<path class="st3" d="M687.17,320.84c-3.52,1.1-17.65-41.7-31.51-23.32C643.29,313.93,676.19,324.28,687.17,320.84z"/>
		<path class="st0" d="M387.68,533.52c9.48,1.71,19.24,0.71,28.69-1.14c-9.69-3.22-18.39-8.8-27.64-13.13
			c-5.45-2.55-24.74-11.26-24.34,0.99C364.63,527.37,382.5,532.59,387.68,533.52z"/>
		<path class="st0" d="M1200.01,267.4c13.35,5.13,28.8,4.53,41.72-1.62c-5.51,2.63-27.38-6.68-33.28-8.39
			c-8.25-2.39-20.6-9.59-28.78-5.71C1182.59,258.99,1192.54,264.53,1200.01,267.4z"/>
		<path class="st3" d="M1293.54,416.9c4.1,7.21,8.19,14.42,12.29,21.63c2.02,3.55,4.09,7.18,7.15,9.89s7.33,4.4,11.28,3.35
			c1.59-0.42,3.21-1.47,3.48-3.09c0.2-1.19-0.38-2.36-0.96-3.41c-6.68-12.09-16.35-22.52-27.91-30.08"/>
		<path class="st0" d="M1354.75,368.54c1.44,0.21,2.88-0.3,4.23-0.84c9.27-3.69,17.97-8.8,25.71-15.1
			c-6.4-0.08-40.48-6.07-44.09-2.46C1334.74,355.99,1347.93,367.52,1354.75,368.54z"/>
		<path class="st3" d="M568.88,307.23c0.86-0.35,1.76-0.77,2.23-1.57c1.52-2.61-2.73-4.67-5.75-4.71c-6.42-0.1-38.97-3.4-33.72,7.92
			C536.69,319.76,561.3,310.37,568.88,307.23z"/>
	</g>
	<g id="Plant_3_">
		<path class="st3" d="M626.9,795.23c-17.77-5.09-35.38-10.36-48.11-23.62c-6.58-6.86-10.62-19.38-2.87-24.88
			c3.9-2.77,9.12-2.33,13.9-2.68c18.37-1.32,8.15-17.83-1.08-24.15c-16.29-11.15-36.08-20.07-44.21-38.07
			c-0.51-1.13-0.98-2.37-0.73-3.59c0.37-1.82,2.16-2.95,3.84-3.73c11.49-5.25,31.06,1.68,39.18-9.66
			c19.82-27.71-41.71-74.56-55.38-92.35c-2.61-3.4-5.34-7.08-5.59-11.36c-0.49-8.3,8.7-14.23,17.02-14.49
			c12.74-0.39,24.67,6.89,37.54,4.82c10.14-1.63,16.83-11.24,19.15-20.64c6.97-28.31-6.49-59-5.03-87.71
			c1.2-23.5,17.46-68.28,49.13-57.33c14.5,5.01,18.87,22.81,23.4,37.47c4.19,13.59,10.21,28.87,18.94,40.14
			c6.4,8.26,15.76,14.84,26.19,15.42c20.27,1.13,46.85-15.07,47.16,17.68c0.1,10.03-3.46,19.72-4.61,29.69
			c-1.15,9.96,0.88,21.46,9.19,27.08c15.15,10.25,60.46-10.87,58.32,21.49c-0.54,8.1-4.9,15.37-8.7,22.54
			c-18.36,34.68,16.61,33.08,25.4,59.43c3.16,9.48,1.13,20.07-3.32,29.01c-7.14,14.35-19.5,25.86-28.51,39.05
			c-18.29,26.78-30.54,57.26-40.63,87.92c-7.4,22.48-13.67,66.28-45.1,66.71c-19.39,0.27-25.62-29.16-32.15-42.43
			C676.51,811.13,653.09,802.72,626.9,795.23z"/>
		<g>
			<g>
				<path class="st1" d="M740.43,889.5c-0.87,0-1.65-0.61-1.83-1.5l-70.39-347.21c-0.2-1.01,0.45-2,1.46-2.21
					c1.03-0.2,2.01,0.45,2.21,1.46l70.39,347.21c0.2,1.01-0.45,2-1.46,2.21C740.68,889.48,740.56,889.5,740.43,889.5z"/>
			</g>
			<g>
				<path class="st1" d="M693.54,648.34c-0.26,0-0.52-0.05-0.77-0.17c-0.94-0.42-1.36-1.53-0.94-2.48l29.94-66.5
					c0.42-0.95,1.54-1.36,2.48-0.94c0.94,0.42,1.36,1.53,0.94,2.48l-29.94,66.5C694.93,647.93,694.25,648.34,693.54,648.34z"/>
			</g>
			<g>
				<path class="st1" d="M720.35,773.97c-0.26,0-0.52-0.05-0.77-0.17c-0.94-0.42-1.36-1.53-0.94-2.48l29.94-66.5
					c0.43-0.95,1.54-1.36,2.48-0.94c0.94,0.42,1.36,1.53,0.94,2.48l-29.94,66.5C721.75,773.56,721.07,773.97,720.35,773.97z"/>
			</g>
			<g>
				<path class="st1" d="M701.17,716.01c-0.27,0-0.54-0.06-0.8-0.18l-64.71-30.56c-0.93-0.44-1.34-1.56-0.89-2.49
					c0.44-0.94,1.56-1.33,2.5-0.89l64.71,30.56c0.93,0.44,1.34,1.56,0.89,2.49C702.54,715.61,701.87,716.01,701.17,716.01z"/>
			</g>
		</g>
	</g>
	<path id="Plant_4_" class="st5" d="M1345.69,899.97c4.74-8.94,8.27-17.62,15.03-25.37c2.28-2.61,5.07-5.23,8.54-5.32
		c0.65-0.02,1.38,0.09,1.83,0.59c0.4,0.44,0.49,1.07,0.54,1.66c3.19,37.67-45.91,35.48-55.72,3.76c-0.61-1.96-1.06-4.09-0.46-6.02
		c1.09-3.53,5.49-5.01,8.99-3.87c3.5,1.13,6.15,4.18,8.11,7.39c5.2,8.48,6.82,18.61,8.32,28.42c-2.43-12.84-0.88-26.33,4.37-38
		c0.79-1.75,2.31-3.75,4.12-3.11c0.87,0.31,1.44,1.16,1.89,1.99c3.26,5.93,3.5,13.13,2.03,19.62S1348.76,894.15,1345.69,899.97z"/>
	<path id="Plant_5_" class="st5" d="M703.57,860.47c4.39-6.86,8.17-14.81,9.14-23.7c0.23-2.15,0.26-4.52-0.72-6.26
		c-0.85-1.51-2.28-2.22-3.67-2.61c-9.86-2.78-19.11,6.75-26.22,16.18c-12.57,16.66-23.79,35.09-33.41,54.88
		c5.75-11.84,8.79-34.55,7.42-48.47c-0.05-0.55-0.14-1.14-0.46-1.49c-0.33-0.35-0.8-0.33-1.22-0.23c-3.03,0.77-4.94,4.66-6.4,8.26
		c-4.5,11.15-8.41,24.03-11.02,36.54c1.64-7.86-3.21-17.32-7.61-22c-7.87-8.37-6.19,3.31-4.48,10.17
		c1.67,6.73,12.8,33.05,20.73,27.17c1.45-1.08,1.81-6.96,3-8.85c2.08-3.28,4.97-4.36,7.95-5.58c8-3.28,16.33-4.63,23.85-9.79
		C689.24,878.67,697.18,870.46,703.57,860.47z"/>
	<path id="Plant_6_" class="st6" d="M801.45,840.48c0.34-0.05,0.7-0.01,1.08,0.12c1.19,0.42,1.8,1.7,2.26,2.88
		c4.15,10.77,3.65,8.05,4.81,22.86c1.04-9.53,0.31-7.77,3.65-16.76c0.65-1.75,1.39-3.55,2.81-4.77c9.19-7.86,3.73,21.33,2.51,24.78
		c-4.51,12.77-16.48,17.66-29.22,15.25c-11.18-2.11-22.59-8.74-28.09-18.9c-0.5-0.92-0.94-2.1-0.33-2.95
		c0.42-0.59,1.19-0.78,1.9-0.9c6.38-1.03,12.89,1.26,18.42,4.6c5.54,3.34,10.37,7.7,15.68,11.4c3.76,2.62,10.91,1.29,15.49,1.12
		c7.78-0.29,10.32-3.74,16.33-8.69c1.31-1.08,2.76-2.11,4.44-2.36c1.68-0.25,3.62,0.52,4.2,2.12c0.34,0.95,0.16,2.01-0.12,2.98
		c-3.6,12.33-18.63,13.15-26.61,5.04c-7.61-7.74-13.93-21.63-12.62-32.57C798.3,843.51,799.57,840.74,801.45,840.48z"/>
	<g id="Plant_7_">
		<path class="st6" d="M439.86,777.58c2.22-1.27,4.63-2.2,7.15-2.66c10.51-1.92,20.81,4.27,28.7,11.48
			c7.88,7.22,14.77,15.86,24.28,20.75c4.42,2.27,11.52,2.51,12.67-2.32c0.54-2.25-0.64-4.51-1.82-6.5
			c-11.86-19.93-28.82-35.46-44.01-52.73c-4.06-4.62-8.38-10.9-5.58-16.38c3-5.88,11.89-5.45,17.43-1.85
			c5.54,3.59,9.57,9.29,15.45,12.3c1.53,0.78,3.24,1.38,4.95,1.17c3.24-0.4,5.53-3.65,5.94-6.89c2.5-19.93-21.57-35.65-29.06-51.98
			c-6.4-13.93-5.15-30.09-2.73-45.23c1.89-11.82,4.81-24.29,13.39-32.64c1.94-1.88,4.34-3.59,7.04-3.58
			c10.29,0.02,10.52,23.9,16.23,30.55c5.18,6.05,12.65,10.33,16,17.55c4.23,9.12,0.61,19.8,1.29,29.83
			c1.1,16.04,15.42,19.96,19.61,32.06c0.82-9.05,1.55-18.24,2.31-27.35c0.24-2.9,0.66-6.15,2.95-7.95
			c4.99-3.93,11.6,3.19,12.47,9.48c1.15,8.28-1.11,16.62-1.64,24.97s1.25,17.79,8.12,22.55c7.57,5.25,17.79,2.74,26.78,0.7
			c8.99-2.04,20.06-2.72,25.73,4.55c2.23,2.85,3.18,6.5,3.59,10.1c3.53,30.44-27,58.18-20.54,88.13
			c5.79,26.86,21.68,43.36-7.13,63.07c-11.81,8.08-24.45,11.45-38.49,7.12c-10.74-3.32-20.19-9.76-29.66-15.8
			c-19.57-12.47-42.18-18.88-63.07-28.86c-14.59-6.97-28.61-16.49-36.91-30.37c-8.3-13.87-9.63-32.79,0.1-45.7
			C433.69,782.11,436.57,779.47,439.86,777.58z"/>
		<g>
			<path class="st1" d="M581.14,908.82c-0.79,0-1.53-0.5-1.78-1.3l-75.47-232.88c-0.32-0.98,0.22-2.04,1.2-2.36
				c1-0.32,2.04,0.22,2.36,1.2l75.47,232.88c0.32,0.98-0.22,2.04-1.2,2.36C581.52,908.79,581.33,908.82,581.14,908.82z"/>
		</g>
		<g>
			<path class="st1" d="M566.08,862.36c-0.18,0-0.35-0.03-0.53-0.08l-90.69-26.82c-0.99-0.29-1.56-1.34-1.27-2.33
				c0.3-0.99,1.34-1.56,2.33-1.27l90.69,26.82c0.99,0.29,1.56,1.34,1.27,2.33C567.63,861.83,566.89,862.36,566.08,862.36z"/>
		</g>
		<g>
			<path class="st1" d="M537.74,774.93c-0.25,0-0.51-0.05-0.75-0.16l-34.67-15.27c-0.95-0.42-1.38-1.52-0.96-2.47
				c0.42-0.95,1.53-1.38,2.47-0.96l34.67,15.27c0.95,0.42,1.38,1.52,0.96,2.47C539.15,774.51,538.47,774.93,537.74,774.93z"/>
		</g>
	</g>
</g>
<g id="UI">
	<g id="Location">
		<path class="st5" d="M918.25,222.29c-114.34,0-207.02,92.69-207.02,207.02s149.88,375.64,207.02,375.64
			c62.76,0,207.02-261.3,207.02-375.64S1032.58,222.29,918.25,222.29z M918.25,574.58c-77.84,0-140.94-63.1-140.94-140.94
			c0-77.84,63.1-140.94,140.94-140.94c77.84,0,140.94,63.1,140.94,140.94C1059.19,511.48,996.09,574.58,918.25,574.58z"/>
		<ellipse class="st5" cx="918.25" cy="914.49" rx="148.17" ry="20.03"/>
	</g>
</g>
</svg>
