<?xml version="1.0" encoding="utf-8"?>
<!-- Generator: Adobe Illustrator 23.0.3, SVG Export Plug-In . SVG Version: 6.00 Build 0)  -->
<svg version="1.1" xmlns="http://www.w3.org/2000/svg" xmlns:xlink="http://www.w3.org/1999/xlink" x="0px" y="0px"
	 viewBox="0 0 1799.6 1200.87" style="enable-background:new 0 0 1799.6 1200.87;" xml:space="preserve">
<style type="text/css">
	.st0{fill:#A7ADFF;}
	.st1{fill:#FFFFFF;}
	.st2{fill:#E3E5FC;}
	.st3{fill:#4B369D;}
	.st4{fill:#F44E4E;}
	.st5{fill:#FDC510;}
	.st6{fill:#978CFF;}
	.st7{fill:#FFECA7;}
	.st8{fill:#F9AE10;}
	.st9{fill:#F9DC2C;}
	.st10{fill:#D4A79A;}
	.st11{fill:#EAC2AB;}
	.st12{fill:#F3AA02;}
	.st13{fill:#5A54FF;}
	.st14{fill:#D7384E;}
</style>
<g id="Nature">
	<g id="Plant">
		<path class="st0" d="M1046.84,923.92c-1.54-1.96-3.13-4.33-2.54-6.76c0.57-2.36,2.94-3.75,5.1-4.87
			c10.05-5.22,20.1-10.44,30.15-15.65c-17.59-18.2-31.87-39.58-41.96-62.79c-1.68-3.87-3.09-8.85-0.2-11.93
			c3.65-3.89,10.03-0.97,14.62,1.75c4.59,2.72,11.87,4.33,14.12-0.51c1.37-2.96-0.35-6.35-1.91-9.23
			c-11.65-21.5-15.9-46.93-11.87-71.05c0.47-2.8,1.09-5.68,2.83-7.92c5.28-6.77,16.91-2.85,21.53,4.39
			c4.62,7.24,5.16,16.31,8.41,24.26s11.71,15.36,19.71,12.24c5.93-2.31,10.16-9.86,16.41-8.66c2.54,0.49,4.55,2.42,6.19,4.42
			c8.22,10.03,10.93,24.31,6.95,36.66c-2.53,7.86-7.2,17.51-1.33,23.32c3.88,3.85,10.46,3.38,14.81,6.69
			c7.2,5.49,4.07,17.05-1,24.55c-5.07,7.51-11.79,15.66-9.66,24.47c1.06,4.37,4.18,7.92,5.91,12.07c2.25,5.41,2,11.48,1.71,17.33
			c-0.48,9.7-0.95,19.39-1.43,29.09c-1.33,27.2-12.87,44.84-37.17,29.92C1085.11,962.78,1062.34,943.66,1046.84,923.92z"/>
		<g>
			<path class="st1" d="M1126.36,977.33c-0.6,0-1.15-0.42-1.29-1.03c-10.76-48.36-35.43-161.26-32.16-165.02
				c0.48-0.55,1.31-0.61,1.86-0.13c0.48,0.42,0.59,1.11,0.28,1.64c-1.31,6.16,18.74,100.66,32.59,162.93c0.16,0.71-0.29,1.41-1,1.57
				C1126.55,977.32,1126.45,977.33,1126.36,977.33z"/>
		</g>
		<path class="st2" d="M1094.45,896.08c-1.67-9.95,0.37-21.44,8.45-27.48c11.03-8.24,29.73-4.07,37.21-15.63
			c-14.96-23.78-24.68-50.84-28.28-78.71c-1.87-14.45,1.37-33.69,15.74-36.07c7.8-1.29,17.09,3.15,23.05-2.06
			c3.45-3.02,4.07-8.12,3.88-12.69c-0.92-22.84-15.68-43.11-18.25-65.82c-3.59-31.75,21.01-64.09,52.56-69.11
			c30.49,0,3.93,59.13,20.19,83.39c8.1,0.42,12.54-8.9,16.02-16.22c3.48-7.32,12.19-14.98,18.56-9.97c1.92,1.51,2.98,3.88,3.63,6.23
			c4.35,15.62-5.83,31.08-10.97,46.46c-5.14,15.38-0.23,38.12,15.98,38.55c15.82,0.41,28.91-22.08,43.03-14.93
			c9.4,4.76,8.69,18.47,5.01,28.34c-4.35,11.65-10.89,22.47-19.18,31.73c-5.97,6.66-12.92,12.65-17.09,20.56s-4.73,18.68,1.62,24.97
			c5.62,5.56,15.05,6.22,20,12.38c8.8,10.96-3.61,26.04-14.89,34.42c-8.99,6.68-17.98,13.36-26.97,20.04
			c-7.51,5.58,17.09-7,14.29,1.92c-2.8,8.93-29.78,39.64-20.43,39.55c45-12.63-31.01,30.28-43.21,35.37
			c-14.24,5.94-24.31,4.28-36.47-4.05C1135.57,951.93,1099.17,924.12,1094.45,896.08z"/>
		<g>
			<path class="st1" d="M1175.16,975.9c-0.04,0-0.08,0-0.12-0.01c-0.72-0.07-1.26-0.71-1.19-1.43l23.2-253.57
				c0.07-0.72,0.66-1.26,1.43-1.19c0.72,0.07,1.26,0.71,1.19,1.43l-23.2,253.57C1176.41,975.39,1175.84,975.9,1175.16,975.9z"/>
		</g>
		<g>
			<path class="st1" d="M1190.13,812.29c-0.28,0-0.56-0.09-0.8-0.27l-47.66-36.58c-0.58-0.44-0.69-1.27-0.24-1.85
				c0.45-0.58,1.27-0.68,1.85-0.24l47.66,36.58c0.58,0.44,0.69,1.27,0.24,1.85C1190.92,812.11,1190.53,812.29,1190.13,812.29z"/>
		</g>
		<g>
			<path class="st1" d="M1192.6,785.28c-0.44,0-0.87-0.22-1.12-0.62c-0.38-0.62-0.19-1.43,0.43-1.81l45.57-28.17
				c0.62-0.38,1.43-0.19,1.81,0.43c0.38,0.62,0.19,1.43-0.43,1.81l-45.57,28.17C1193.08,785.21,1192.84,785.28,1192.6,785.28z"/>
		</g>
	</g>
	<g id="Tree_1_">
		<path class="st0" d="M343.74,444.3c0.25,0.02,0.49,0.08,0.74,0.21c0.78,0.41,1.03,1.27,1.18,2.04c1.39,7.09,1.43,5.37,0.12,14.51
			c2.1-5.65,1.33-4.68,4.98-9.69c0.71-0.97,1.49-1.97,2.67-2.52c7.6-3.55-0.42,13.44-1.77,15.37c-5.01,7.15-14.15,8.54-22.79,5.39
			c-7.58-2.76-14.69-8.29-17.11-15.19c-0.22-0.62-0.36-1.4,0.19-1.83c0.38-0.3,0.95-0.32,1.47-0.29c4.65,0.22,8.91,2.47,12.34,5.23
			c3.43,2.76,6.21,6.05,9.42,8.99c2.27,2.09,7.51,2.23,10.76,2.73c5.53,0.85,7.81-0.9,12.76-3.11c1.08-0.48,2.25-0.91,3.47-0.84
			c1.22,0.07,2.48,0.8,2.66,1.84c0.11,0.62-0.17,1.24-0.51,1.79c-4.31,7.01-15.02,5.51-19.49-0.46c-4.26-5.7-6.73-14.97-4.24-21.44
			C341.09,445.73,342.38,444.21,343.74,444.3z"/>
		<path class="st2" d="M274.7,628.26c5.75-9.87,16.53-16.65,25.43-24.57c8.9-7.92,16.48-18.8,13.28-29.6
			c-5.31-17.93-35.9-23.64-40.76-41.66c-5.55-20.61,26.21-34.02,31.96-54.44c3.28-11.65-2.64-24.07-11.34-33.58
			c-8.7-9.51-20.04-16.92-30.03-25.43c-12.1-10.31-22.55-22.85-25.56-37.22c-3.01-14.37,2.99-30.69,17.47-37.98
			c8.16-4.11,17.92-5.02,26.92-7.53c9-2.51,18.17-7.65,19.93-15.69c0.87-3.99-0.22-8.09-0.92-12.13
			c-5.85-33.57,19.25-68.81,56.43-79.21c-1.47,8.26,11.43,14.07,20.49,11.16c9.05-2.91,14.41-10.76,18.94-18.11
			c4.54-7.35,9.58-15.27,18.44-18.59c7.11-2.67,15.3-1.81,23.03-0.82c5.98,0.76,12.97,2.22,15.33,7.04c0.98,2.01,0.93,4.26,0.8,6.42
			c-1.19,19.55-7.69,38.51-9.97,57.98c-2.28,19.46,0.33,40.71,14.89,55.92c8.75,9.15,21.38,15.65,27.67,26.18
			c9.97,16.7,0.57,36.6-9.42,53.04c-9.99,16.44-20.92,35.21-13.59,52.87c7.37,17.75,90.73-4.04,80.93,112.22
			c-2.37,28.17-40.87,3.27-34.25,30.71c2.8,11.6-22.56,4.03-23.84,15.78c-0.41,3.73,17.33,19.57,16.36,23.22
			c-3.36,12.65-17.16,14.53-5.52,22.96c6.08,4.4,14.04,7.78,16.67,14.22c4.73,11.57-11.24,21.26-25.12,23.48
			c-11.59,1.85-17.53-34.59-26.62-27.33c-10.68,8.52-20.11,37.92-76.51,37.07c-23.32-0.35-38.48-63.05-54.72-50.09
			C294.36,694.2,244.89,679.43,274.7,628.26z"/>
		<g>
			
				<rect x="375.46" y="355.22" transform="matrix(0.9998 -0.0223 0.0223 0.9998 -14.285 8.5699)" class="st3" width="2.63" height="578.04"/>
		</g>
		<g>
			<path class="st3" d="M376.63,539.01l-1.82-1.9c4.67-4.48,45.88-43.78,54.3-45.42l0.51,2.58
				C423.81,495.4,394.75,521.64,376.63,539.01z"/>
		</g>
		<g>
			<path class="st3" d="M370.7,470.44c-15.52-18.74-66.01-80.35-64.13-86.57c0.18-0.6,0.62-1.04,1.21-1.21l0.75,2.52
				c0.37-0.11,0.57-0.47,0.58-0.64c-0.17,5.21,38.93,54.42,63.62,84.22L370.7,470.44z"/>
		</g>
		<g>
			<path class="st3" d="M372.43,404.2l-2.04-1.66c1.49-1.83,36.49-44.94,40.2-48.68l1.87,1.85
				C408.84,359.36,372.79,403.75,372.43,404.2z"/>
		</g>
	</g>
	<ellipse id="Ground" class="st2" cx="872.67" cy="997.8" rx="635.74" ry="19.29"/>
	<path id="Plant_1_" class="st0" d="M525.97,937.23c-3.31-3.92-6.17-8.46-6.9-13.54c-0.18-1.23-0.2-2.58,0.54-3.58
		c0.64-0.86,1.72-1.27,2.77-1.49c7.44-1.59,14.42,3.86,19.79,9.24c9.49,9.52,17.96,20.05,25.22,31.36
		c-4.34-6.77-6.64-19.74-5.6-27.7c0.04-0.31,0.1-0.65,0.35-0.85c0.25-0.2,0.61-0.19,0.92-0.13c2.29,0.44,3.73,2.66,4.83,4.72
		c3.39,6.37,6.35,13.73,8.32,20.88c-1.23-4.49,2.42-9.9,5.74-12.57c5.94-4.78,4.67,1.89,3.38,5.81
		c-1.26,3.84-9.66,18.89-15.65,15.53c-1.1-0.62-1.36-3.97-2.27-5.05c-1.57-1.88-3.75-2.49-6-3.19c-6.04-1.87-12.33-2.65-18-5.6
		C536.78,947.64,530.79,942.94,525.97,937.23z"/>
	<path id="Plant_2_" class="st4" d="M792.71,980.3c0.76-7.74,0.74-14.91,3.28-22.47c0.86-2.55,2.07-5.26,4.49-6.43
		c0.46-0.22,1-0.38,1.46-0.17c0.41,0.18,0.66,0.58,0.86,0.98c13.15,25.21-22.15,39.38-38.26,20.42c-1-1.17-1.93-2.51-2.07-4.05
		c-0.25-2.81,2.43-5.24,5.23-5.57c2.8-0.33,5.55,0.95,7.87,2.55c6.12,4.25,10.2,10.78,14.1,17.13c-5.43-8.17-8.24-18.05-7.91-27.85
		c0.05-1.47,0.55-3.35,2.01-3.48c0.7-0.06,1.35,0.35,1.91,0.78c4.01,3.09,6.27,8.02,7.11,13.02S793.19,975.26,792.71,980.3z"/>
	<path id="Plant_3_" class="st4" d="M1501.31,949.76c0.32,0.01,0.65,0.09,0.98,0.27c1.04,0.56,1.42,1.84,1.66,2.99
		c2.25,10.56,2.19,7.97,1.07,21.82c2.36-8.65,1.43-7.13,5.84-14.94c0.86-1.52,1.81-3.07,3.3-3.99c9.64-5.9,0.31,20.24-1.32,23.25
		c-6.04,11.13-17.81,13.88-29.22,9.78c-10.01-3.6-19.58-11.39-23.16-21.59c-0.32-0.92-0.56-2.07,0.13-2.77
		c0.47-0.48,1.21-0.55,1.88-0.55c6.04-0.01,11.72,3.06,16.34,6.96s8.45,8.64,12.8,12.83c3.08,2.97,9.88,2.8,14.13,3.31
		c7.23,0.87,10.08-1.93,16.35-5.62c1.37-0.81,2.86-1.54,4.45-1.52c1.59,0.02,3.27,1.01,3.57,2.57c0.18,0.93-0.15,1.88-0.55,2.73
		c-5.14,10.85-19.14,9.4-25.31,0.73c-5.89-8.27-9.68-22.02-6.86-31.94C1497.95,952.1,1499.52,949.73,1501.31,949.76z"/>
	<path id="Plant_4_" class="st5" d="M117.81,957.22c0.35,0.01,0.71,0.1,1.08,0.3c1.14,0.62,1.56,2.03,1.83,3.3
		c2.48,11.65,2.42,8.79,1.19,24.07c2.61-9.54,1.57-7.87,6.44-16.48c0.95-1.67,2-3.39,3.64-4.4c10.63-6.51,0.34,22.33-1.46,25.65
		c-6.67,12.27-19.65,15.31-32.24,10.79c-11.04-3.97-21.6-12.57-25.55-23.82c-0.36-1.02-0.61-2.29,0.14-3.05
		c0.52-0.53,1.34-0.6,2.08-0.61c6.67-0.01,12.93,3.38,18.02,7.68c5.1,4.3,9.32,9.53,14.12,14.16c3.4,3.28,10.9,3.09,15.59,3.65
		c7.97,0.96,11.12-2.13,18.04-6.2c1.51-0.89,3.16-1.7,4.91-1.68c1.75,0.02,3.6,1.12,3.93,2.84c0.2,1.02-0.16,2.07-0.61,3.01
		c-5.67,11.98-21.12,10.37-27.93,0.81c-6.5-9.12-10.68-24.29-7.57-35.23C114.1,959.8,115.84,957.18,117.81,957.22z"/>
	<g id="Tree">
		<g>
			<path class="st5" d="M426.61,767.24c-1.71-3.3-3.32-6.92-2.84-10.61c1.73-13.23,23.01-10.03,32.95-18.93
				c10.37-9.29,3.83-26.39-4.1-37.83s-16.96-26.26-9.61-38.09c3.61-5.8,10.58-9.25,13.04-15.63c2.83-7.35-1.23-16.48,3-23.12
				c6.23-9.78,21.32-3.73,30.65,3.16c6.64-10.73,5.99-24.22,8.07-36.66s9.51-26.24,22.09-27.24c2.74,7.45,2.26,17.9,9.71,20.64
				c5.98,2.2,12.11-3,15.5-8.39s6.16-11.87,11.97-14.49c10.21-4.61,21.46,7.09,21.68,18.29s-6.17,21.27-10.73,31.5
				c-4.32,9.68-7.12,20.67-4.23,30.87c2.89,10.2,13,18.88,23.46,17.12c3.75-0.63,7.97-2.4,11.04-0.15c1.66,1.21,2.42,3.29,2.84,5.3
				c2.3,10.87-2.67,21.75-6.16,32.29s-5.12,23.42,2.33,31.65c3.45,3.81,8.56,6.21,10.82,10.82c4.86,9.93-6.6,19.91-16.73,24.33
				c-10.14,4.42-22.72,10.97-21.69,21.98c0.53,5.69,4.92,10.49,5.37,16.19c0.76,9.54-9.66,16.34-19.17,17.5
				c-16.92,2.06-27.21,1.78-42.97,8.83c-13.7,6.12-18.55,10.01-31.99,2.11C460.1,816.43,437.55,788.38,426.61,767.24z"/>
			<g>
				
					<rect x="342.29" y="824.8" transform="matrix(0.2045 -0.9789 0.9789 0.2045 -415.913 1140.4353)" class="st3" width="302.86" height="2.63"/>
			</g>
			<g>
				
					<rect x="493.91" y="773.07" transform="matrix(0.814 -0.5809 0.5809 0.814 -351.6998 450.4507)" class="st3" width="67.2" height="2.63"/>
			</g>
		</g>
		<g>
			
				<rect x="501.96" y="676.76" transform="matrix(0.9773 -0.2117 0.2117 0.9773 -139.3827 122.6826)" class="st3" width="2.63" height="71.1"/>
		</g>
	</g>
	<g id="Plant_5_">
		<g>
			<path class="st4" d="M152.93,877.11c1.36-2.6,3.01-5.15,5.42-6.82c5.25-3.61,12.26-2.06,18.61-1.61
				c6.35,0.45,14.32-1.68,15.48-7.95c0.76-4.11-1.9-7.98-4.19-11.48c-5.51-8.42-9.62-17.74-12.11-27.49
				c-2.27-8.88-1.09-21.32,7.89-23.17c8.85-1.83,17.02,9.16,25.64,6.45c-4.94-22.01-9.88-44.02-14.82-66.02
				c-1.97-8.75-3.84-18.33,0.14-26.36c3.99-8.04,16.61-11.9,21.95-4.69c2.88,3.89,2.53,9.18,2.35,14.02
				c-0.54,14.64,1.64,29.38,6.41,43.24c3.51,10.2,14.37,21.71,23.04,15.28c4.76-3.53,9.57-11.86,13.86-7.77
				c-6.09,40.14,37.53,71.79,41.98,112.15c4.79,43.48-23.4,110.08-75.13,93.62C188.27,965.41,124.96,930.76,152.93,877.11z"/>
			<g>
				<path class="st1" d="M270.22,1006.23c-0.59,0-1.12-0.39-1.28-0.99l-47.91-184.2c-0.18-0.7,0.24-1.42,0.94-1.61
					c0.71-0.19,1.43,0.24,1.61,0.94l47.91,184.2c0.18,0.7-0.24,1.42-0.94,1.61C270.44,1006.22,270.33,1006.23,270.22,1006.23z"/>
			</g>
			<g>
				<path class="st1" d="M252.94,939.8c-0.24,0-0.47-0.06-0.69-0.19l-63.32-38.94c-0.62-0.38-0.81-1.19-0.43-1.81
					c0.38-0.62,1.19-0.81,1.81-0.43l63.32,38.94c0.62,0.38,0.81,1.19,0.43,1.81C253.82,939.58,253.39,939.8,252.94,939.8z"/>
			</g>
			<g>
				<path class="st1" d="M240.81,888.9c-0.12,0-0.24-0.02-0.36-0.05c-0.7-0.2-1.1-0.93-0.9-1.63L256.85,827
					c0.2-0.7,0.93-1.1,1.63-0.9c0.7,0.2,1.1,0.93,0.9,1.63l-17.31,60.22C241.91,888.52,241.39,888.9,240.81,888.9z"/>
			</g>
		</g>
		<path class="st6" d="M225.77,950.11c-2.53-4.34-4.36-9.52-3-14.36c2.63-9.38,15.27-11.82,24.6-9c9.33,2.82,17.58,8.99,27.21,10.44
			c9.64,1.45,21.71-5.28,20.16-14.9c-0.78-4.86-4.71-8.48-8.1-12.04c-9.73-10.23-16.64-23.12-19.78-36.89
			c-1.19-5.24-0.69-12.47,4.53-13.75c3.06-0.75,6.09,1.16,8.67,2.97c10.65,7.48,21.3,14.97,31.96,22.45
			c-2.86-26.33-4.88-55.77,11.72-76.41c3.09-3.85,8.39-7.47,12.59-4.88c1.86,1.15,2.89,3.25,3.69,5.29
			c6.29,16.03,4.1,34.66,11.71,50.1c1.13,2.29,2.56,4.58,4.79,5.82c10.32,5.76,18.46-14.97,30.25-14.11
			c7.67,0.56,11.34,10.34,9.68,17.85c-1.66,7.51-6.59,13.89-8.88,21.23s-0.54,17.22,6.74,19.67c3.4,1.15,7.12,0.34,10.61-0.46
			c10.87-2.51,21.74-5.03,32.61-7.54c-4.27,9.64-8.55,19.27-12.82,28.91c-1.12,2.53-2.25,5.47-1.07,7.97c2.5,5.28,11,2.4,15.9,5.58
			c5.48,3.55,3.04,12.79-2.51,16.22c-5.55,3.43-12.5,3.19-18.97,4.07c-36.29,4.93-57.41,33.44-96.24,26.02
			C290.23,984.32,243.99,981.4,225.77,950.11z"/>
		<g>
			<path class="st1" d="M347.62,991.54c-0.65,0-1.22-0.49-1.31-1.15c-4.41-34.83-11.27-93.66-7.67-96.29
				c0.58-0.43,1.41-0.3,1.84,0.29c0.38,0.52,0.32,1.22-0.1,1.67c-1.87,4.56,4.23,59.95,8.54,94c0.09,0.72-0.42,1.38-1.14,1.47
				C347.73,991.53,347.67,991.54,347.62,991.54z"/>
		</g>
		<g>
			<path class="st1" d="M341.66,939.8c-0.33,0-0.66-0.12-0.91-0.37l-26.69-25.7c-0.52-0.5-0.54-1.34-0.04-1.86
				c0.5-0.52,1.34-0.54,1.86-0.04l26.69,25.7c0.52,0.5,0.54,1.34,0.04,1.86C342.35,939.67,342.01,939.8,341.66,939.8z"/>
		</g>
	</g>
	<g id="Leaves">
		<path class="st4" d="M1187.12,366.62c-1.95,5.43-3.65,11.19-2.82,16.9c0.67,4.64,3.01,8.95,6.17,12.42
			c3.23,3.56,7.67,6.41,12.48,6.33c2.03-4.88,2.87-10.26,2.4-15.53c1.52,2.85,3.04,5.7,4.57,8.55c1.82,3.4,3.94,7.08,7.58,8.37
			c3.63,1.29,8.68-1.85,7.51-5.53c-0.58-1.83-2.5-3.36-2.05-5.22c0.54-2.24,3.82-2.28,5.82-1.13c1.99,1.15,3.83,3,6.13,2.91
			c3.33-0.14,5-4.59,3.71-7.66c-1.29-3.07-4.35-4.96-7.23-6.64c-5.91-3.46-13.26-6.48-18.53-10.84c-2.97-2.46-5.83-8.3-8.71-10.07
			C1196.17,354.57,1190.62,355.86,1187.12,366.62z"/>
		<path class="st5" d="M1359,395.1c0.83,1.22,1.91,2.36,3.33,2.75c2.37,0.64,4.85-1.15,5.84-3.4c0.99-2.25,0.87-4.81,0.72-7.26
			c3.77,3.54,8.93,6.4,13.95,5.15c5.02-1.25,8.19-8.41,4.36-11.89c3.64,0.95,7.56,1.89,11.09,0.57s6.03-5.92,3.84-8.98
			c-1.1-1.54-3.01-2.24-4.8-2.86c-8.09-2.79-16.17-5.59-24.26-8.38c-2.09-0.72-4.26-1.46-6.47-1.27
			C1350.07,360.91,1352.09,384.97,1359,395.1z"/>
		<path class="st2" d="M602.89,520.65c0.83,1.22,1.91,2.36,3.33,2.75c2.37,0.64,4.85-1.15,5.84-3.4c0.99-2.25,0.87-4.81,0.72-7.26
			c3.77,3.54,8.93,6.4,13.95,5.15c5.02-1.25,8.19-8.41,4.36-11.89c3.64,0.95,7.56,1.89,11.09,0.57c3.53-1.32,6.03-5.92,3.84-8.98
			c-1.1-1.54-3.01-2.24-4.8-2.86c-8.09-2.79-16.17-5.59-24.26-8.38c-2.09-0.72-4.26-1.46-6.47-1.27
			C593.96,486.46,595.98,510.51,602.89,520.65z"/>
		<path class="st5" d="M1480.4,680.89c0.98,0.5,2.1,0.87,3.17,0.61c1.79-0.43,2.77-2.5,2.61-4.33c-0.16-1.83-1.16-3.47-2.13-5.02
			c3.75,0.97,8.16,0.99,11.01-1.63c2.85-2.63,2.35-8.47-1.41-9.37c2.73-0.69,5.64-1.48,7.48-3.61c1.84-2.13,1.83-6.05-0.71-7.27
			c-1.28-0.61-2.78-0.39-4.18-0.15c-6.31,1.07-12.62,2.15-18.93,3.22c-1.63,0.28-3.32,0.58-4.7,1.49
			C1462.25,661.66,1472.23,676.72,1480.4,680.89z"/>
		<path class="st5" d="M1313.93,532.93c-3.3,1.03-16.54-39.07-29.52-21.85C1272.82,526.46,1303.64,536.15,1313.93,532.93z"/>
		<path class="st2" d="M1427.5,510.65c8.88,1.6,18.03,0.66,26.88-1.07c-9.08-3.02-17.23-8.25-25.9-12.3
			c-5.11-2.39-23.18-10.55-22.8,0.93C1405.91,504.89,1422.64,509.78,1427.5,510.65z"/>
		<path class="st2" d="M1073.61,510.56c12.51,4.81,26.99,4.25,39.09-1.52c-5.17,2.46-25.65-6.26-31.18-7.86
			c-7.73-2.24-19.3-8.98-26.96-5.35C1057.29,502.68,1066.61,507.87,1073.61,510.56z"/>
		<path class="st2" d="M1180.26,257.84c12.51,4.81,26.99,4.25,39.09-1.52c-5.17,2.46-25.65-6.26-31.18-7.86
			c-7.73-2.24-19.3-8.98-26.96-5.35C1163.94,249.96,1173.26,255.15,1180.26,257.84z"/>
		<path class="st5" d="M664.17,261.39c3.84,6.76,7.68,13.51,11.51,20.27c1.89,3.33,3.84,6.73,6.7,9.27
			c2.87,2.54,6.87,4.12,10.57,3.14c1.49-0.39,3-1.38,3.26-2.9c0.19-1.11-0.36-2.21-0.9-3.19c-6.26-11.33-15.32-21.1-26.15-28.19"/>
		<path class="st5" d="M711.43,536.76c3.84,6.76,7.68,13.51,11.51,20.27c1.89,3.33,3.84,6.73,6.7,9.27s6.87,4.12,10.57,3.14
			c1.49-0.39,3-1.38,3.26-2.9c0.19-1.11-0.36-2.21-0.9-3.19c-6.26-11.33-15.32-21.1-26.15-28.19"/>
		<path class="st4" d="M583.97,266.14c-2.47-0.23-2.29,3.75-1.01,5.88c5.71,9.43,14.8,18.9,25.76,17.7
			c1.47-0.16,3.03-0.58,3.97-1.72c2.06-2.5-0.12-6.2-2.42-8.49c-6.62-6.59-14.74-11.66-23.57-14.72"/>
		<path class="st2" d="M738.22,202.11c1.35,0.2,2.7-0.28,3.96-0.79c8.69-3.46,16.84-8.25,24.09-14.15c-6-0.08-37.93-5.69-41.31-2.31
			C719.48,190.35,731.83,201.16,738.22,202.11z"/>
		<path class="st4" d="M1643.23,751.67c5.98-2.11,12.7-6.85,11.45-13.07c-23.06-1.88-61.44-9.48-83.05-1
			C1582.87,758.33,1624.17,758.39,1643.23,751.67z"/>
		<path class="st5" d="M1602.7,823.61c13.1,2.78,27.63-3.43,34.66-14.82c-8.7,0.45-17.47-0.49-25.88-2.77
			c-6.85-1.86-25.7-12.13-29.05-0.58C1579.8,814.51,1596.18,822.22,1602.7,823.61z"/>
		<path class="st5" d="M1724.82,794.85c0.8-0.33,1.65-0.72,2.09-1.47c1.43-2.44-2.55-4.38-5.38-4.42
			c-6.01-0.09-36.51-3.19-31.59,7.42C1694.67,806.58,1717.72,797.78,1724.82,794.85z"/>
	</g>
</g>
<g id="Characters">
	<g id="Line">
		<path class="st3" d="M1379.11,822.45c-38.36-5.69-69.68-11.29-98.56-17.62c-40.87-8.96-82.36-27.18-130.56-57.33
			c-43.52-27.23-78.62-58.61-104.31-93.27c-8.77-11.82-18.41-23.32-27.74-34.44c-3.81-4.54-7.62-9.08-11.38-13.65
			c-3.7,4.46-8,8.38-12.79,11.68c-6.8,4.68-13.04,6.42-18.54,5.16c-4.45-1.01-8.28-4.4-10.24-9.05c-1.94-4.6-1.7-9.63,0.64-13.46
			c5.4-8.84,17-10.46,28.02-9.94c-2.5-3.93-3.33-6.98-1.94-9.15c1.18-1.83,3-2.82,5.27-2.86c4.76-0.04,10.8,4.27,12.88,7.3
			c4.75,6.87,2.03,13.05-1.1,17.47c3.92,4.77,7.89,9.5,11.86,14.23c9.36,11.16,19.05,22.7,27.87,34.61
			c25.44,34.31,60.21,65.39,103.36,92.38c47.85,29.93,88.98,48.01,129.45,56.88c28.8,6.31,60.05,11.9,98.32,17.58L1379.11,822.45z
			 M990.37,593.97c-8.31,0-17.65,1.61-21.76,8.34c-1.75,2.87-1.9,6.7-0.4,10.26c1.52,3.61,4.43,6.22,7.78,6.99
			c4.49,1.03,9.81-0.53,15.77-4.63c4.68-3.22,8.86-7.07,12.44-11.46c-0.07-0.07-0.13-0.14-0.2-0.22c-3.06-3.34-5.69-6.35-7.77-9.04
			C994.41,594.06,992.42,593.97,990.37,593.97z M1001.18,594.72c1.42,1.7,3.12,3.66,5.16,5.89c3.27-4.92,3.42-8.73,0.62-12.78
			c-1.58-2.29-6.51-5.78-9.86-5.78c-0.02,0-0.05,0-0.08,0c-1.09,0.02-1.84,0.41-2.38,1.24c-0.43,0.67-0.26,2.52,3.49,7.57
			c2.1,0.2,4.14,0.45,6.07,0.72l-0.49,3.48C1003.01,594.96,1002.16,594.84,1001.18,594.72z"/>
	</g>
	<g id="Dog">
		<g>
			<path class="st7" d="M1175.53,860.77c4.02-12.19,11.27-24.82,23.55-28.55c13.35-4.06,27,3.76,40.05,8.73
				c10.48,3.99,21.49,6.16,32.66,7.35c-1.65,0.28-3.31,0.55-4.98,0.77c-32.76,6.14-53.47-25.98-92.95,17.16
				C1174.39,864.4,1174.94,862.57,1175.53,860.77z"/>
			<path class="st7" d="M1243.18,898.67c-11.4,0-21.09,3.44-29.85,8.79c30.54-1.88,59.61,4.31,90.97,18.25
				c10.34,4.6,23.73,7.49,34.92,9.17c13.2,1.98,34.37,5.67,47.02,1.4c7.96-2.69,15.18-5.98,21.7-9.95c1.3,0.59,2.61,1.13,3.97,1.58
				c8.06,2.62,16.79,2.7,24.8,5.46c8.27,2.84,15.86,8.52,24.6,8.51c3.08,0,7.05-2.35,5.76-5.14c-0.45-0.97-1.43-1.56-2.35-2.1
				c-10.22-6.04-17.52-13.41-26.35-21c1.58,0.58,3.37,1.15,5.43,1.7c8.99,2.41,17.7,5.7,26.81,7.64c2.52,0.54,5.12,1.07,7.64,0.52
				c3.71-0.81,6.5-3.78,9.04-6.61c1.18-1.32,2.4-2.69,2.97-4.36c0.57-1.68,0.33-3.76-1.05-4.88c-2.34-1.91-5.7,0.06-8.37,1.47
				c-7.03,3.71-19.83-2.39-27.25-5.24c-6.31-2.42-10.98-9.35-15.22-13.85c3.42-8.23,7.65-17.02,10.02-25.93
				c2.87-4.04,6.66-7.61,11.79-7.99c5.08-0.37,10.09,1.07,15.08-0.45c3.07-0.94,7.89-3.51,7.84-7.31c-0.02-1.71-1.93-3.27-3.09-4.26
				c-3.3-2.82-7.31-4.89-11.17-6.82c-2.21-1.1-4.11-2.29-4.37-4.98c-0.2-2.13-0.57-4.14,2.14-0.61c3.89,5.07,8.47,5.43,8.47,5.43
				c3.46,1.56,6.08,5.55,10.06,5.49c4.46-0.07,6.94-3.95,10.5-6.36c0.99-0.67,2.04-1.49,2.27-2.69c0.36-1.91-1.51-3.42-3.16-4.4
				c-6.74-4-15.52-6.46-21.48-11.56c-0.55-0.47-1.01-1-1.5-1.51c-2.11,3.92-7.6,2.73-5.04,6.65c-13.9,0-22.36-14.12-36.26-11.76
				c-2.32,0-2.07,6.98-2.07,9.35c4.63,4.72,15.23,9.89,12.91,14.61c0,3.74-3.24,4.84-7.31,5.05c-6.55-4.57-20.43-14.59-28.06-15.68
				c0,9.45,2.14,26.76-7.3,29.13c-16.53,4.72-25.58,12.2-42.11,5.12c2.36,4.72-2.76,12.2,1.97,12.2
				c21.92,6.92,47.92,17.41,64.46,30.58c0.04,0.65,2.06,3.82,2.06,4.45c-1.56,9.37-9.32,14.57-17.81,15.68
				c-11.59-14.47-26.91-28.37-38.87-20.4C1325.84,919.92,1283.33,901.03,1243.18,898.67z M1423.32,901.6
				c0.81,0.65,1.6,1.32,2.4,1.98C1424.8,902.84,1423.99,902.18,1423.32,901.6z"/>
		</g>
		<path class="st8" d="M1180.99,883.67c0.51,0.22,0.08-0.77-0.48-0.78c-11.87-0.16-23.39,3.65-34.64,7.41
			c-4.6,1.54-9.58,3.37-12.08,7.53c-0.29,0.48-0.54,1.01-0.5,1.57c0.06,0.82,0.75,1.45,1.44,1.89c3.08,1.96,7,1.84,10.64,1.67
			c12.37-0.6,24.73-1.2,37.1-1.81"/>
		<path class="st1" d="M1375.36,735.61L1375.36,735.61c1.68,0,3.06-1.38,3.06-3.06l0,0c0-1.68-1.38-3.06-3.06-3.06l0,0
			c-1.68,0-3.06,1.38-3.06,3.06l0,0C1372.3,734.24,1373.68,735.61,1375.36,735.61z"/>
		<path class="st1" d="M1375.36,735.65c2.2,0,4.01,1.8,4.01,4.01h-8.01C1371.35,737.46,1373.16,735.65,1375.36,735.65z"/>
		<path class="st5" d="M1136.4,916.86c9.29-5.72,18.91-11.54,25.34-20.36c6.8-9.32,7.93-21.22,12.86-31.42
			c5.5-11.37,17.34-18.85,29.41-21.55c18.48-4.13,36.24,5.09,54.53,5.91c11.37,0.51,22.74,0.6,34.12,0.31
			c11.06-0.28,22.16,0.32,32.99-2.48c14.19-3.67,28.66-9.09,40.66-18.03c13.2-9.83,19.54-25.48,32.3-35.4
			c8.56-6.65,20.46-12.83,31.53-12.98c11.5-0.16,23.03,6.67,30.2,15.3c5.03,6.05,6.76,15.04,12.26,20.76
			c-2.15,3.92-5.32,6.97-2.71,10.89c-1.57-2.29-8.29-2.44-10.89-3.53c-7.58-3.19-13.94-9.06-22.02-11.02
			c-2.08-0.51-4.53-0.65-6.13,0.78c-1.72,1.54-1.68,4.37-0.55,6.38c1.66,2.93,5.08,4.77,7.53,7c2.79,2.54,4.96,6.8,2.91,9.96
			c-1.85,2.86-6.15,2.99-9.23,1.55c-3.09-1.44-5.49-4.01-8.39-5.82c-3.62-2.25-9.39-2.83-11.13,2.07c-0.73,2.06-0.51,4.31-0.28,6.48
			c2.33,21.51-28.49,22.59-43.19,20.29c-2.68-0.42-10.18-3.31-10.26,0.98c-0.04,2.3,4.22,5.26,5.92,6.31
			c3.08,1.92,6.58,3.02,10.01,4.22c11.17,3.93,66.25,23.91,48.31,43.09c-1.85,1.98-4.32,3.29-6.88,4.15
			c-1.83,0.61-3.78,1.02-5.7,0.8c-9.68-1.1-15.41-14.37-23.19-19.32c-11.08-7.04-19.15-0.13-29.97,3.03
			c-24.69,7.2-50.53,2.93-75.35-1.23c-12.47-2.09-24.95-4.2-37.58-4.97c-8.49-0.52-16.42,2.6-24.27,5.39
			c-8.92,3.17-17.41,3.86-26.63,5.45c-8.63,1.49-17.16,3.56-25.55,6.07c-8.92,2.67-19.19,10.78-28.19,13.17
			c-2.8,0.74-6.24,1.23-8.2-0.9C1127.71,924.66,1132.29,919.39,1136.4,916.86z"/>
		<path class="st8" d="M1409.71,769.1c1.27-3.63,2.51-7.27,3.12-11.06c0.09-0.55,0.17-1.13,0.5-1.58c0.94-1.29,3.18-0.55,3.91,0.87
			c0.74,1.42,4.62,5.78,4.73,7.38c0.49,7.07,2.69,9.45,2.59,16.59c-0.1,6.98-3.8,14.04-9.77,17.72c-0.49,0.3-1.02,0.59-1.6,0.61
			c-0.78,0.02-1.49-0.46-2.08-0.98c-5.4-4.72-5.99-13.01-4.38-20L1409.71,769.1z"/>
		<path class="st3" d="M1460.07,802.43c1.02,0.1,2.28,0.69,2.13,1.7c-0.12,0.78-1.02,1.14-1.78,1.37c-2.44,0.77-4.78,1.88-6.92,3.29
			c-4.11,2.71-5.56,0.55-2.35-2.86C1453.41,803.54,1456.77,802.11,1460.07,802.43z"/>
		<path class="st9" d="M1419.72,771.58c1.51-4.31,2.98-8.62,3.7-13.12c0.1-0.65,0.2-1.34,0.59-1.87c2.57-3.54,6.34,3.22,7.26,5.15
			c1.41,2.97,2.35,6.14,3.16,9.32c0.75,2.94,1.78,5.84,2.33,8.82c1.92,10.51-1.48,22.17-11.44,27.33c-0.41,0.21-0.84,0.42-1.3,0.5
			c-1.91,0.35-5.16-0.68-6.93-1.32c-1.39-0.51-2.71-1.33-3.58-2.54c-3.92-5.49,0.95-15.37,2.68-20.94
			C1416.19,782.9,1419.72,771.58,1419.72,771.58z"/>
		<path class="st1" d="M1426.34,766.91c-0.2,0.13-0.38,0.31-0.54,0.48c-1.05,1.15-1.45,2.46-2.16,3.75c-1.6,2.92-3.1,5.88-4.46,8.89
			c-2.93,6.5-6.28,13.91-1.58,20.44c0.18,0.26,0.39,0.52,0.7,0.65c0.4,0.18,0.89,0.11,1.33,0.03c3.17-0.56,7.04-1.03,9.61-2.88
			c1.76-1.26,2.61-3.22,3.12-5.15c2.19-8.26-0.66-16.85-3.71-24.9c-0.28-0.73-0.8-1.61-1.68-1.55
			C1426.74,766.7,1426.53,766.79,1426.34,766.91z"/>
		<path class="st8" d="M1451.79,810.13c-2.26,0.76-8.2,1.5-8.2,1.5s0.61,0.19,4.9,1.43c4.29,1.24,5.11,3.14,8.92,2.58
			c3.81-0.56,5.48-2,5.48-2s2.7-9.07-1.13-7.18s-8.94,3.69-8.94,3.69L1451.79,810.13z"/>
		<path class="st3" d="M1464.13,809.78C1464.13,809.78,1463.54,808.33,1464.13,809.78c0.59,1.45,0.12,3.35-1.26,4.1
			c-0.51,0.28-1.11,0.38-1.7,0.37c-1.31-0.03-2.62-0.71-3.3-1.84c-0.68-1.13-0.65-2.68,0.18-3.71c0.82-1.03,2.42-1.37,3.54-0.68"/>
		<path class="st3" d="M1490.5,911.34c0,0-2.7-3.27-3.29,0c-0.59,3.27-1.56,4.72,0,4.25C1488.77,915.13,1490.5,911.34,1490.5,911.34
			z"/>
		<path class="st3" d="M1486.38,917.58c0.03,0.12,0.24,0.01,0.2-0.11s-0.18-0.15-0.3-0.17c-1.1-0.14-2.25,0.34-2.94,1.21
			c-0.68,0.87-0.86,2.11-0.46,3.14c0.64,0.25,1.22-0.45,1.62-1.01c0.81-1.17,1.87-2.16,3.09-2.89"/>
		<path class="st3" d="M1480.73,922.63c-1.33-0.68-3.11-0.3-4.04,0.88c1.6,0.6,3.48,0.36,4.87-0.62"/>
		<path class="st3" d="M1457.59,940.82c-0.18-0.93-0.63-1.91-1.51-2.25c-0.88-0.34-2.1,0.47-1.81,1.36
			c0.14,0.43,0.56,0.71,0.98,0.88c0.7,0.28,1.49,0.33,2.22,0.15"/>
		<path class="st3" d="M1461.66,941.23c0.26-0.44-0.1-1.03-0.57-1.21c-0.48-0.18-1.01-0.07-1.51,0.04c-0.57,0.13-1.3,0.54-1.07,1.08
			c0.12,0.29,0.46,0.39,0.77,0.45c0.9,0.16,1.84,0.13,2.73-0.09"/>
		<path class="st3" d="M1136.4,916.86c0,0,2.83,3.06,0,3.45c-2.83,0.39-3.11-1.04-3.11-1.04L1136.4,916.86z"/>
		<path class="st3" d="M1130.32,923.37c0,0,4.24-0.49,3.84,1.28c-0.39,1.77-3.18,3.57-3.18,3.57L1130.32,923.37z"/>
		<path class="st3" d="M1139.08,923.3c0.59-0.23,3.54,0.16,1.38,1.34c-2.16,1.18-3.04,1.97-2.8,0.2
			C1137.9,923.07,1139.08,923.3,1139.08,923.3z"/>
		<path class="st3" d="M1143.41,893.95c0,0,4.53,0.98,1.57,1.77s-2.57,0.98-3.74,0C1140.06,894.73,1143.41,893.95,1143.41,893.95z"
			/>
		<path class="st3" d="M1136.65,894.65c0,0,2.93,1.02,1,1.73c-1.92,0.71-3.87,1.45-3.87,1.45L1136.65,894.65z"/>
		<path class="st3" d="M1135.47,900.24c0,0,1.16-1.57,3.96,0s3.67,2.95,1.81,2.78c-1.86-0.17-2.02-1.6-3.79-1.4
			C1135.68,901.82,1135.47,900.24,1135.47,900.24z"/>
		<path class="st3" d="M1488.31,828.93c0.07-0.33,0.15-0.67,0.35-0.94c0.69-0.96,2.18-0.65,3.26-0.17c1.95,0.85,3.83,1.86,5.61,3.03
			c3.69,2.42-1.8,7.63-4.86,7.53C1488.61,838.25,1487.69,831.97,1488.31,828.93z"/>
		<path class="st4" d="M1380.56,814.22c-1.88,2.34,9.49,20.29,11.23,22.74c4.24,5.99,9.93,10.41,16.47,13.68
			c13.08,6.53,27.96,8.3,42.18,10.85c0,0-3.49,7.28-3.49,7.28c-21.65-5.39-44.62-7.43-58.8-25.95
			c-1.92-2.51-14.75-19.68-12.79-22.11C1377.09,818.55,1378.82,816.39,1380.56,814.22z"/>
	</g>
	<g id="Man">
		<g id="Head">
			<path id="Neck" class="st10" d="M912.54,339.57l-8.93,41.67l-34.91,7.47c0,0,24.37-25.8,25.11-52.11
				C894.56,310.3,912.54,339.57,912.54,339.57z"/>
			<path id="Face" class="st11" d="M955.58,258.24c0,0,5.66,10.63-5.95,38.63c-11.61,28-21.56,48.57-30.05,45.42
				c-23.49-8.69-34.62-24.7-40.69-40.75c-7.45-19.68,20.01-60.44,20.01-60.44l21-7.36L955.58,258.24z"/>
			<path id="Hair" class="st3" d="M882.72,277.44c-0.85,0.12,3.17,35.26,3.26,38.42c-5.95-6.1-13.97-11.99-18.81-19.01
				c-7.39-10.73-12.3-20.62-22.19-29.33c-5.03-4.43,6.34-9.37,5.93-9.72c-2.71-2.29-4.72-5.27-0.31-7.38
				c1.91-0.91,4.25-1.37,5.35-3.17c0.87-1.43,0.62-3.34-0.25-4.78c-2.83-4.65-12.62-7.95-8.36-15.25c2.47-4.23,7.53-4.29,9.28-9.44
				c0.76-2.25,1.21-4.68,2.62-6.59c6.25-8.46,19.82,2.24,27.84,1.1c5.38-0.76,8.83-5.96,14.29-6.61c5.6-0.67,13.82-0.29,18.89,2.52
				c6.47,3.57,8.07,14.45,14.11,16.98c1.03,0.43,2.19,0.45,3.31,0.45c10.84,0.07,20.98-1.35,30.26,5.22
				c14.64,10.37,9.07,52.27-12.02,42.48c-2.42-1.12-4.54-2.79-6.86-4.1c-11.2-6.29-23.48,7.08-32.26-10.61
				c-1.57-3.16-23.59-2.33-23.06,6.65C894.42,276.86,882.96,277.43,882.72,277.44z"/>
			<path id="Ear" class="st11" d="M887.58,276.72c0,0-7.33-11.51-8.8,4.05c-1.47,15.56,6.1,20.02,6.1,20.02L887.58,276.72z"/>
		</g>
		<g id="Leg_4_">
			<path id="Skin" class="st10" d="M738.78,823.24l-44.94,31.92l-12.22-13.93l48.87-30.52
				C730.49,810.72,738.25,817.36,738.78,823.24z"/>
			<path id="Shoe" class="st12" d="M713.68,920.67c-1.07,0.64-6.44-2.74-7.28-3.17c-8.68-4.5-22.25-10.98-26.98-19.94
				c-4.61-8.73-4.77-19.56-8-28.82c-2.27-6.52-6.66-12.09-10.39-17.85c-4.12-6.36,22.12-26.66,26.9-18.53
				c3.87,6.58-4.15,14.75,11.17,21.36c13.13,5.66-4.47,19.31,4.4,37.84C711.34,907.92,725.38,913.66,713.68,920.67z"/>
			<path id="Leg_5_" class="st3" d="M842.41,667.44c-10.9,38.86-4.56,39.49-31.4,69.8c-13.09,14.78-93.5,44.77-106.99,59.21
				c-19.25,20.6-3.15,41.4,11.13,47.44c9.34,3.95,13.39,24.26,27.59,9.15c1.4-1.49,26.45-24.33,33.79-38.16
				c8.4-15.82,69.36-47.86,85.95-63.08c39.5-36.21,19.54-53.61,43.71-101.02c9.2-18.05,7.16-37.27,9.89-58.03
				c1.67-12.71-17.72-72.17-44.69-61.66c-16.78,6.55-10.37,40.59-9.66,54.02c0.5,9.29,1.83,19.53-0.47,28.51
				C856.53,632.05,847.56,649.07,842.41,667.44z"/>
		</g>
		<g id="Leg">
			<path id="Skin_1_" class="st11" d="M922.28,856.74l0.02,56.79l-18.98,1.96l3.5-59.25C906.82,856.23,917.03,853.67,922.28,856.74z
				"/>
			<path id="Shoe_1_" class="st5" d="M990.09,950.78c0,0-14.24,1.61-40.04-2.08c-25.8-3.69-54.34-8.97-58.66-13.87
				c-4.32-4.9-0.6-37.65,7.86-35.8c8.46,1.86,9.06,14.83,26.38,7.18c14.84-6.56,21.17,13.34,42.4,22.93
				C989.26,938.75,997.86,942.61,990.09,950.78z"/>
			<path id="Leg_1_" class="st13" d="M956.96,887.15c-0.87-2.03-0.1-12.14,0-14.68c1.02-25.94-2.35-37.17,0.49-56.47
				c14.01-95.2,21.79-114.42-0.74-153.81c-22.22-38.83-36.8-55.76-40.54-102.4c-1.3-16.19,30.77-37.11,6.31-32.48
				c-11.59,2.19-23.03,1.76-34.58-0.26c-6.08-1.06,0.12-3.04-6.08-1.06c-21.13,6.74-36.85,44.57-37.11,59.14
				c-0.59,32.66,73.07,84.01,71.46,113.34c-3.81,69.81-9.19,54.99-14.13,96.27c-2.42,20.23-5.23,22.85-7.93,43.04
				c-1.57,11.77-3.95,24.28-15.81,37.83c-11.34,12.96,59.64,23.69,73.14,23.36C961.59,898.72,959.92,894.06,956.96,887.15z"/>
		</g>
		<path id="Hand" class="st11" d="M1017.27,579.12c-1.02-9.64-0.67-7.32-5.6-6.77c-4.93,0.54-28.46-9.82-36.54-14.03
			c-3.07-1.6-15.29-13.77-29.45-28.47c-2.82,3.16-7.04,5.19-12.66,4.99c-1.85-0.07-3.68-0.19-5.48-0.37
			c14.09,13.19,25.89,23.79,29.16,25.66c9.34,5.34,5.83,6.49,10.14,14.81c4.31,8.32,7.22,11.19,14.04,12.34
			c6.82,1.15,15.06-0.03,18.69-0.96c3.63-0.93,4.38,11.44,6.09,15.27c1.71,3.83,4.81-5.74,4.81-5.74s-0.24,7.55,3.35,9.29
			C1017.39,606.87,1018.3,588.76,1017.27,579.12z"/>
		<g id="Body">
			<path class="st14" d="M927.33,450.01c-6.12-24.87,0.53-66.7-17-85.14c-1.79-1.89-3.7-3.76-6.08-4.83
				c-22.03-9.92-35.31,8.16-44.78,23.84c-9.48,15.7-9.27,32.67-13.9,50.27c-5.26,20,5.61,33.63,5.23,54.28
				c-0.23,12.57-5.4,28.84-6.1,41.43c-0.49,8.79-28.75,38.88-30.76,47.45c-1.33,5.7,15.11-0.95,17.28,4.85
				c1.72,4.59,9.61,2.86,13.49,2.99c15,0.49,29.71-3.95,43.05-10.55c12.19-6.02,25.07-5.79,39.13-6.95
				c6.98-0.58,16.03-6.59,12.87-19.28c-7.48-30.06-5.3-56.41-8.4-77.64C930.36,463.84,929.03,456.9,927.33,450.01z"/>
			<path class="st4" d="M894.1,388.7c0,0-12.46,27.15-6.52,53.48c5.94,26.33,5.23,56.76,21.67,76.07
				c16.44,19.31,40.43,60.74,44.53,59.04c4.1-1.7,8.45-10.65,20.02-16.12c11.57-5.47,6.81-8.98-16.85-27.12
				c-23.66-18.14-38.02-36.28-40.79-65.53C913.41,439.26,928.04,363.89,894.1,388.7z"/>
		</g>
		<g id="Scraf">
			<path class="st8" d="M886.84,313.84c0,0-74.16-64.28-104.58,1.49s-21.34,72.2-78.88,54.68c-81.93-24.95-50.92,9.06-83.1,18.69
				c-19.1,5.71,17.32,22.2,17.32,22.2s-0.82,6.46,17.21,9.83c18.03,3.37,22.65,3.92,24.12,8.62c1.47,4.7,6.68,1.26,4.12-5.94
				s-4.09-28,5.8-26.33c9.89,1.67,30.85,29.05,67.14,18.72c36.29-10.33,48.8-78.79,72.89-70.38c24.08,8.4,6.19,26.72,50.45,18.18
				C923.59,355.07,886.84,313.84,886.84,313.84L886.84,313.84z"/>
			<path class="st5" d="M888.23,324.3c0,0,8.81,24.84,23.84,24.87s15.2-4.18,12.18,9.28s4.48,15.14,0,23.54s-15.84,0.23-20.78-6.61
				c-4.94-6.84-12.17-11.31-20.31-13.7S870.97,351.26,888.23,324.3z"/>
		</g>
	</g>
</g>
</svg>
